/* XPM */
static char *_a1e7f2a787847eb8b3d2ee8d72c44e0r3os4AcpehMw3JZK[] = {
/* columns rows colors chars-per-pixel */
"64 64 185 2 ",
"   c None",
".  c #E49A37",
"X  c #E0943C",
"o  c #E29A38",
"O  c #DCA73A",
"+  c #DBA73C",
"@  c #DAA73F",
"#  c #DDA838",
"$  c #E5A233",
"%  c #E3A135",
"&  c #E2A734",
"*  c #E3A734",
"=  c #E2A737",
"-  c #E3AB32",
";  c #E3AD31",
":  c #E3A836",
">  c #E2A23B",
",  c #E1A738",
"<  c #E3A33C",
"1  c #E0A23E",
"2  c #BF9955",
"3  c #BC925F",
"4  c #BF9A58",
"5  c #A58A6E",
"6  c #A48A6F",
"7  c #A88C6D",
"8  c #A88D6D",
"9  c #A98D6E",
"0  c #A98E6E",
"q  c #AA8E6E",
"w  c #AA8E6F",
"e  c #AB8F6F",
"r  c #B09164",
"t  c #B39367",
"y  c #B6966A",
"u  c #BB9869",
"i  c #A88D70",
"p  c #A88D71",
"a  c #AB8F70",
"s  c #AA8F73",
"d  c #AC9070",
"f  c #AD9070",
"g  c #AE9171",
"h  c #AE9271",
"j  c #AF9271",
"k  c #AC9073",
"l  c #AD9173",
"z  c #AF9372",
"x  c #AD9276",
"c  c #B09371",
"v  c #B09372",
"b  c #B49674",
"n  c #B49775",
"m  c #B59775",
"M  c #B49777",
"N  c #B59875",
"B  c #B59877",
"V  c #B69876",
"C  c #B79976",
"Z  c #BB9B70",
"A  c #BA9C78",
"S  c #BB9D78",
"D  c #BE9F7B",
"F  c #BF9F7B",
"G  c #BE9F7C",
"H  c #BFA07B",
"J  c #BEA07C",
"K  c #BFA07C",
"L  c #CF8F4B",
"P  c #DA9143",
"I  c #DE9D45",
"U  c #DC994B",
"Y  c #DC994C",
"T  c #C48F55",
"R  c #C19C5C",
"E  c #D79852",
"W  c #D09859",
"Q  c #E09D43",
"!  c #E09D44",
"~  c #CFA248",
"^  c #CEA24B",
"/  c #D0A244",
"(  c #DBA44F",
")  c #DDA44C",
"_  c #DEA54D",
"`  c #CEA351",
"'  c #CEA55D",
"]  c #D9A159",
"[  c #D9A259",
"{  c #D8A15A",
"}  c #C39E63",
"|  c #C89960",
" . c #C29C68",
".. c #C2A16F",
"X. c #C6A26E",
"o. c #D6A061",
"O. c #D5A062",
"+. c #D3A167",
"@. c #D0A36B",
"#. c #C2A372",
"$. c #C1A177",
"%. c #CDA670",
"&. c #C7AA77",
"*. c #CBA974",
"=. c #C0A07B",
"-. c #C0A27B",
";. c #C0A17C",
":. c #C2A37D",
">. c #C3A47D",
",. c #C9A77A",
"<. c #C8A77F",
"1. c #C7A87F",
"2. c #C7A97F",
"3. c #CBAF7B",
"4. c #CCAE79",
"5. c #D1A671",
"6. c #D1A672",
"7. c #D0A776",
"8. c #D0A979",
"9. c #D0AD7B",
"0. c #CFB37D",
"q. c #D1B17D",
"w. c #D3B57F",
"e. c #C0A383",
"r. c #C7A680",
"t. c #C7A780",
"y. c #C7A781",
"u. c #C8A780",
"i. c #C9A780",
"p. c #CAAA81",
"a. c #CBAA82",
"s. c #CBAA83",
"d. c #CCAA82",
"f. c #CCAB82",
"g. c #CCAA83",
"h. c #CCAB83",
"j. c #CDAB83",
"k. c #CCAE81",
"l. c #CCAF81",
"z. c #CEAD83",
"x. c #CDAF82",
"c. c #CEAE83",
"v. c #C8AA86",
"b. c #CCAB84",
"n. c #CDAB84",
"m. c #CDAC84",
"M. c #CDAC85",
"N. c #CEAC84",
"B. c #CEAE84",
"V. c #CFAF84",
"C. c #CDAF87",
"Z. c #CBAD88",
"A. c #CFB186",
"S. c #D0B184",
"D. c #D1B284",
"F. c #D1B385",
"G. c #D2B385",
"H. c #D0B286",
"J. c #D1B386",
"K. c #D0B287",
"L. c #D0B387",
"P. c #D1B484",
"I. c #D1B584",
"U. c #D2B485",
"Y. c #D3B684",
"T. c #D3B687",
"R. c #D4B785",
"E. c #D4B981",
"W. c #D4B982",
"Q. c #D5BB83",
"!. c #D6BB83",
"~. c #D4B885",
"^. c #D5B985",
"/. c #D6BA85",
"(. c #D4B886",
"). c #D5B886",
"_. c #D5B986",
"`. c #D6B986",
"'. c #D6BA86",
"]. c #D7BD84",
"[. c #D7BC85",
"{. c #D7BC86",
"}. c #D7BD86",
"|. c #D8BE85",
" X c #D8BD86",
/* pixels */
"                                                                                                                                ",
"                                                                                                                                ",
"                                                                                                                                ",
"                                                                                                                                ",
"                                                                                                                                ",
"                                                                                                                                ",
"                                                                                                                                ",
"                                                                                                                                ",
"                                                                                  ; ;                                           ",
"                                                                                - - - -                                         ",
"                                                                                = * = =                                         ",
"                                                                              ( 1 % % 1 (                                       ",
"                                                                          h.5.{ I . o I { 5.h.                                  ",
"                                                                        Z.h.7.O.U X X U O.*.h.Z.                                ",
"                                                                        B.c.8.+.E P P E +.8.V.Z.                                ",
"                                                                      A.L.A.9.@.W L L W @.9.V.L.H.                              ",
"                                  ; ;                             b.V.H.U.E.0.%.| T T R %.q.U.T.H.V.h.                          ",
"                                - - - -                         h.b.B.U.Y.W.w.*. .T u  .*.w.{.T.G.V.h.h.                        ",
"                                = = * =                         h.h.B.H.`.|.w.0...u u ..4.W.|.`.H.B.h.h.                        ",
"                              ( 1 % % 1 (                       h.b.V.H.`. X].0.>...#.&.0.]. X`.G.V.b.h.                        ",
"                          h.5.{ I o o I { 5.h.                  b.b.V.H.^.{.{.W.w.0.3.0.W.|.|.^.Y.V.b.b.                        ",
"                        Z.h.7.O.Y X X Y O.7.h.Z.                h.h.V.S.^.^.|.].W.W.E.E.|.|.^.^.H.c.h.s.                        ",
"                        B.B.8.+.E P P E +.8.c.B.                1.<.h.c.I.^.{. X|.|.^.{.|.^.^.H.c.<.<.1.                        ",
"                      A.H.A.9.@.W L L W @.9.H.L.A.              D =.>.2.A.U.Y.`.^.^.^.{.^.^.U.3.<.>.:.=.                        ",
"                  h.B.H.T.U.q.%.| T T | %.q.W.T.H.B.b.          m C S :.2.h.S.I.G.G.G.H.Y.H.c.1.H D C C                         ",
"                s.h.c.H.^.^.E.*. .3 3  .*.w.^.^.U.B.b.b.        f c m S :.s.c.A.V.V.V.V.V.V.s.:.A N v f                         ",
"                s.h.B.U.^.|.w.4...u u ..3.w.{.`.H.B.h.b.        7 a c N G 1.h.c.b.h.h.B.h.h.<.=.N v f 7                         ",
"                h.B.V.U.^.|.].0.&.#.#.&.0.{.{.^.Y.V.b.B.        5 7 l B G 1.s.h.h.h.h.h.h.h.u.=.N f 7 7                         ",
"                b.b.c.U.^.|.{.W.0.3.0.0.E.].{.^.G.V.B.b.        6 p l N G r.s.b.h.h.h.h.B.s.r.H C v 7 7                         ",
"                h.h.c.S.^.{.|.|.W.W.W.^.].{.{.E.S.V.s.B.        7 a c C =.r.h.B.b.h.h.b.b.h.t.H C v d e                         ",
"                r.u.s.c.H.W.{.|.|.{.{. X{.{.^.I.c.s.<.r.        r t y Z $.<.h.b.B.b.s.B.b.s.r.H N z e 7                         ",
"                D =.:.1.c.I.U.^.^.`.^.^.^.U.I.c.<.>.H D         2 R R } X.,.b.b.b.h.h.b.b.c.1.:.C z d                           ",
"                N N C :.<.S.H.G.Y.H.H.U.U.S.A.<.:.C C B         / ~ ~ ^ '                                                       ",
"                f c m S >.<.V.V.V.c.V.V.S.c.<.:.C m v l         # O # )                                                         ",
"                p f c C =.<.h.b.b.h.h.b.c.s.u.G C b f s         = * * :                                                         ",
"                  7 f m D 1.h.b.h.h.s.h.h.s.u.G m a a x       _ > % % % (                                                       ",
"                                                        e.r.5.{ ! . . Q { 5.h.                                                  ",
"                                                        b.h.*.O.U X X U { 8.h.Z.                                                ",
"                                                        B.B.8.+.E P P E +.8.c.B.                                                ",
"                                                      L.H.S.9.@.W L L W @.9.H.L.A.                                              ",
"                                                  b.V.H.Y.Y.q.%.| T T | %.q.W.T.H.B.b.                                          ",
"                                                h.h.V.H.Y.{.w.*. .3 3  .*.w.^.^.U.B.s.b.                                        ",
"                                                h.h.V.H.{.{.W.4...u u ..3.w.{.`.H.B.h.s.                                        ",
"                                                h.b.V.E.`.{.{.q.&.#.#.&.0.{.{.^.U.B.B.h.                                        ",
"                                                b.B.B.H.^.|.^.E.0.3.0.0.E.].{.^.U.V.c.s.                                        ",
"                                                s.s.c.H.Y.|.|.|.W.W.W.^.].{.{.E.S.c.s.s.                                        ",
"                                                1.1.s.c.U.^.{.|.|.{.{. X{.{.^.I.A.<.<.s.                                        ",
"                                                H H =.2.c.U.W.^.^.`.^.^.^.~.I.h.2.=.=.=.                                        ",
"                                                N C D H 2.c.S.S.G.H.Y.H.I.S.c.1.K S C N                                         ",
"                                                f v b A :.s.c.A.V.B.B.V.c.c.s.:.S N v f                                         ",
"                                                e f c N H u.s.b.c.h.h.b.c.h.1.D N v f 7                                         ",
"                                                  7 f N H r.s.B.h.h.s.h.h.s.s.K N f 7                                           ",
"                                                                                                                                ",
"                                                                                                                                ",
"                                                                                                                                ",
"                                                                                                                                ",
"                                                                                                                                ",
"                                                                                                                                ",
"                                                                                                                                ",
"                                                                                                                                ",
"                                                                                                                                ",
"                                                                                                                                ",
"                                                                                                                                ",
"                                                                                                                                "
};
