/* XPM */
static char *_5b25bcdcf6c4df191755f00df232cbcSGdmZ4B9TdNKYyl9[] = {
/* columns rows colors chars-per-pixel */
"68 64 93 2 ",
"   c #463C2B",
".  c #49392B",
"X  c #364126",
"o  c #3A4326",
"O  c #3B4529",
"+  c #3F492A",
"@  c #3A4731",
"#  c #3D4B36",
"$  c #3F4E3B",
"%  c #42442A",
"&  c #424B2A",
"*  c #4A4C2B",
"=  c #524E2B",
"-  c #594E2C",
";  c #46502D",
":  c #53522D",
">  c #5D542E",
",  c #5F582E",
"<  c #424F37",
"1  c #475231",
"2  c #485535",
"3  c #47563D",
"4  c #495639",
"5  c #4A583A",
"6  c #63542E",
"7  c #6B552F",
"8  c #605A2E",
"9  c #695630",
"0  c #735730",
"q  c #735931",
"w  c #7B5D32",
"e  c #706130",
"r  c #7C6432",
"t  c #435542",
"y  c #475947",
"u  c #4C5D42",
"i  c #435648",
"p  c #45594D",
"a  c #475D53",
"s  c #4D6046",
"d  c #4E634C",
"f  c #4F6552",
"g  c #4D6458",
"h  c #506652",
"j  c #516A56",
"k  c #516B5A",
"l  c #4E6967",
"z  c #4E6968",
"x  c #526D64",
"c  c #506D6E",
"v  c #547162",
"b  c #557569",
"n  c #56786E",
"m  c #506E70",
"M  c #567675",
"N  c #577A72",
"B  c #587C74",
"V  c #557679",
"C  c #56787E",
"Z  c #597D7C",
"A  c #815E33",
"S  c #856034",
"D  c #8C6235",
"F  c #866B33",
"G  c #936436",
"H  c #9B6737",
"J  c #966936",
"K  c #9C6F36",
"L  c #9E6838",
"P  c #967135",
"I  c #9C7236",
"U  c #A26A38",
"Y  c #AD6E3A",
"T  c #AB7139",
"R  c #A97938",
"E  c #B4753A",
"W  c #B9743B",
"Q  c #B17A39",
"!  c #BB7A3B",
"~  c #5A817C",
"^  c #577B84",
"/  c #587D85",
"(  c #5A7E89",
")  c #5B8482",
"_  c #5B828D",
"`  c #5E8B8E",
"'  c #5C8491",
"]  c #5F8C95",
"[  c #5F8B98",
"{  c #608F96",
"}  c #608F9A",
"|  c #609196",
" . c #619399",
/* pixels */
". .     % % & + + + + O o o o # p z C ( ' ' ( ' ( ( ( ( V x d 4 & & & + + + + + + o o o o ; a m / ' ' ' ( ' ( ' ' ( M x y 2 & & & o & + ",
". .     % % + + + + + + o o o # p l C ( ' ' ' ( ' [ [ ( C x d 4 ; & & + + + + + + + o o O < a m ^ ' ' ' ' _ ' ' ( ( M x u 2 ; & & & & + ",
". .     % % + + + + + + o X o # p z ^ ' ' ' ' ' [ ( [ ( C v d 3 ; & & & & + + + + o X X O $ a z ^ ' ' ' ' ' ' ' ' ( C k u 2 * & & & + + ",
". .     % % + + + + + + o o o # p l C ( [ ' [ ' [ [ [ ( Z l d 5 ; & & & + + + + % o o o o $ a m ^ ' ' ' ' ] ' ] [ ( V x s 2 ; & o & + & ",
". .     % % + + + + & + o o o # p l C _ ' ] ] ' [ [ ] ` Z x d 5 * & & & + + + + + o o o X $ g m ^ ' ' ] ' ] ] ] { _ B x s 2 & & & & & & ",
". . .   % % + + + + + o o o o # p l C _ [ ] ] ] [ [ | ] ) b d 5 ; & o + + + + + + + o o @ $ a m ^ ' ] ] ] ] { } { ` Z v s 4 * & o & o & ",
". . . % % % & + + + % + o o o # p l ^ _ ' ] | | [  . .] ) b d 5 ; & & + & + + + + o o o X $ a z ^ ' ' ] ] {  . .| ` ~ v s 2 ; & & & + + ",
". .     % % + + + + & o o o o # p l C _ ] ] | {  . . .] ) b f 5 ; & & + + + + + + + o X O $ a m ^ ' [ [  .|  . . .` ~ v d 2 & & % + & + ",
". .     % % & + + + + + o o o + p l C ' ' [ ] {  . . .| ~ ~ d 5 ; & & & + + + + + o o o @ $ a m / ' ] ] |  . . . .` ~ v s 2 ; & & + + + ",
". .     % % + + + + + o o o o # p l C ( ] ] | |  . . .` ~ b d 5 ; & & & + + + + + o o o @ $ a z / ' ' ] |  . . . .` ~ v s 2 ; & & & + + ",
". .     % % + + & + + + o X o # p l ^ ( ] [ | |  . . .| ~ b h 5 * & & + + + + + & o o o X $ p m / _ ] ] | |  . . .` ~ v s 2 ; & o & + + ",
". .     % % + + + + + + o X O # p l ^ _ ' [ | |  . . .| ~ b d 5 & & + & + + + + & o o o X $ a m / _ ] ] | |  . . .` ~ v s 2 & & & & + + ",
". .     % % o + + + + + o o o # p l C _ ] | | |  . . .` ~ n d 5 ; * & + + + & + o o o o o ; a m / _ ] ] | | |  . .` ~ v d 2 ; & o & & + ",
". .     % % & & & + + + o o o # p l C _ ] ` | | |  . .| ~ v h 5 & & + & + + + + & & o o o ; p m ^ ' [ ] | |  . . .` ~ v d 2 & & & & + + ",
". .     % % + + + + & o o o o # p l C _ ] ] | |  . . .` ) ~ d 5 ; & & & + + + + o o o o O $ d m / _ [ ] ] |  . . .` ~ v s 2 * & & + + + ",
". .     % & + + + + & o o o O # p l C _ ] ] | |  . . .| ~ b d 5 ; & & & + + + + & o o o O $ d m / _ [ ] | |  . . .` ~ v d ; ; & & + + + ",
". .     % % + + + + + + o o o # p l C _ ] ] | |  . . .| ~ b h 5 * & % & + + + + % o o X O $ a m ^ ' [ ] | |  . . .` ~ v d 2 + + + + + + ",
". .     % % + + + + + + o o o # p l C _ ' [ ] |  . . .` ~ b d 5 * & & + + + + + o % o X O $ a m ^ ' [ ] | | |  . .` ~ v d 2 ; & + & + + ",
". . .   % % + + + + & + o o o # p l C _ ] [ { |  . . .` ~ v d 5 & & & + + + + + & o o o O $ a z / _ ' ] | |  . . .` ~ v s 2 ; & + + + + ",
". .     % % + & + + + o o o o + p l C _ ] ] | |  . . .| ) ~ d 5 ; & & & + + + + + + o X @ $ a m / ' ] ] | |  . . .` ~ v s 2 & & & & + + ",
". .     % % + + + & + + o o o # p l ^ ( ' [ ] |  . . .` ~ b d 5 ; & & & + + + & + o o o O $ a m ^ ' [ ] ] |  . . .` ~ v d 2 ; & + + + + ",
". . .   % % + + + + + o o X o # p l C ' [ ] | |  . . .| ) b d 5 ; & & & + + + + + o o o O $ a m / _ [ ] | |  . . .` ~ v s 5 ; & & & + + ",
". . . % % % + + + + & & o o o # p l C ( ] [ ] {  . . .| ) n h 5 * & & o + + + + & o o o O $ a c ^ ' [ | | | |  . .` ~ v s 1 ; & & + + + ",
". .     % % + + + + + o o o O # p l ^ _ ] ] | |  . . .| ~ b d 5 ; & & & + + + & + o o o O $ a c ^ ' ' ] ] |  . . .` ~ v d 1 & & & + + + ",
". .     % % + + + + + + o o o # p l C _ ' ] | | {  . .| ) n h 5 ; & & & o & & o + o o o o & a m ^ _ ] ] |  . . . .` ~ v s 2 ; & + & + + ",
". .     % % % + + + + + o o o + p l ^ ( [ ] | | {  . .] ~ b d 5 ; & & & & o & & + + o o @ 1 a m ^ ' ] ] |  . . . .` ~ v s 5 ; & & & + + ",
". .     % % + + + + + O o o O # p l ^ ( [ ] { {  . . .] ) n d 5 ; & & & + & o & + o X o X $ a m / ' ] ] | |  . . .` ~ v s 2 & & + + + + ",
". .     % & + + + + + + o X O # p l ^ _ [ { { {  . . .` ~ b d 5 ; & & & + & o & % o o o O $ a z ^ ' ] | ] |  . .| ` ~ v s 2 ; & & & + + ",
". .     % % + + + + + + o o X # p l ^ ( ' [ { {  . . .| ) b h 5 & & & & + + + + + O o o O $ a m ^ ' [ ] ]  . . . .| ~ v s 2 ; & % + + + ",
". . .   % & + + + + + o o o O # p z ^ ' [ [ {  . . . . .) b d 5 ; & & & + + + + + + o o O $ a m / ' [ {  . . . . .` ~ b s 5 ; & & + + + ",
". .     % % + + + + + + o o o # p z ^ ' [ [  . . . . . .) n d 5 ; & & o + + + + + O o X @ $ a m ( ' [  . . . . . .| ~ v s 2 ; & & + + + ",
". . . %   % + + + + + + o o o + p z C ( ] ] [ |  . . . .) n h 5 ; & & + + + & + % o o X O $ a z ^ ' ] [ |  . . .| ` ~ v s ; ; & & & + + ",
". .     % % + + + + + O o o o # i g M / ~ ~ ` ~ ` ) ` ) B v d 5 ; & & & o o & & + + o o + + d l V ^ _ ) ~ ) ` ) ` ~ ~ j u 2 ; & & + + + ",
". .       + + + + + O O o X X @ t a l b n ~ ~ ~ ~ B ~ B v j s 2 ; & & & & & + + + + + o + 2 y g z n M N ~ ~ ~ ~ ~ ~ v h 5 2 ; ; & + + + ",
". .     % % + + + O O O X X X X # i f g j k j j j j k k h s 5 2 ; & & & & + + + + + + + + $ 5 s d g k k j j j j d j h s 5 ; ; & & + & + ",
". .     % + + + + + + O O o o + # 1 5 5 5 s 5 u u u 5 s 5 5 2 1 ; ; & & o + + + + + + ; ; ; 2 5 3 u 3 u u u s 5 5 5 5 5 1 ; ; & & + + + ",
". .     % % % & & ; * ; & % % % & & * 1 * ; ; ; 1 ; ; 1 1 ; 1 ; ; & & + & + & + + + ; ; ; ; ; ; 1 1 ; ; ; 1 * ; ; ; ; ; ; ; ; ; + + + + ",
". .     % % & * : : , 8 6 > - = * * * & & & & * ; ; & ; & & & * ; & & + + + + + + + + ; ; ; ; & ; ; & & ; ; & & ; & ; ; ; ; ; & & & + + ",
". . .   % o & : 8 e r r r w 0 9 6 : * & & + & & & + & & & & & & & & + & + + + + + ; + ; + ; & & + & & & & & & & & & & & & & + & + + + + ",
".       % + & > e F P I U J D A 0 > * & & & o + + & & & & & & & & & & + + + + + + + + + + + & & + & + & & & + & & & & & + ; + + & + + + ",
". . .   o % * > r P R Q Q T U G w 6 * & + + + + + + + + + + & + & + + + + + + + & + + + + + + + + + + + + + + + + + + + + + + + + + + + ",
". .     o o * > r I R ! ! E Y H A 7 * & + O + + + + & + + + + + + + + + + + + + + + + + + + + + + + + + + + + + + + + + + + & + & + + + ",
". .       + & 6 r K T ! ! W Y L S 7 ; + + + + + + + + + + + + + + + + + + + + + + + + + + + + + + & + + + & + + + + + + + + + + + + + + ",
". .     X + * > r J T E W W Y U S 7 : & O O O + + + + + + + + + + & + + + + + + + + + + + + + + + + + + + + + + + + + + + + + + + + + + ",
". .       % * - q D U Y Y Y U H A 6 * & + O + + + + + + + + + + + + + + + + + + + + + + + + + + + + + + + + + + + + + + + + + + + + + + ",
".       O O < : 7 A G J H U G A q 8 * + O O + + + + + O + + + % + + + + + + + + + + + + + + + + + + + + + + + O + + + + + + + + + + + + ",
". .       + % = 6 7 w A A A w 0 6 - & o O O O O O + + O O + O O o + + + + + + + + + + + o + + + + + o o O + O + o o o + + + o + + + + + ",
". . .   o % & * = - 6 6 6 6 - - = * + O o X O O o o o o o o X O o + o + + + + + + + o o o o o o o o o o o O o o O o o o o o o o O + + + ",
". .     % % & & * & ; * * * * % + O O o o o O X o O X X o o o o o o O + + + + + + + + o o o X O o o o o O O X o O X o X o X O O + + + + ",
". .     % % + + & & + O & o o o o O X o o X o o X o X o o o X O O + + O + + & + + + o o o X o X o o X o X X O X X o O o o O O O O + + + ",
".       % % + + O + O O o X X X X X O X o o o X O X O X o O O + O O O & + + + + + o + o X o X X O X o X X O X X o O o O O O O + + + + + ",
". .     % % + + + + + O o X X X X X X X o X O X O X O O o + O & & & & + + + + + + + o o o X o o X o O o X X O O O X O O + & + + & + + + ",
". .     % % + + + + + + o o X X O X O O O O O X O X X O @ O & & & & & & + + + + + + o o o X o o O O O O O O X O o @ + + & & & & & + + + ",
". .     % % + + + + + % + o X o X O O O O O O O O O O O O & & & < & & & + + + + + o O o X O o O O O O O O X O O O + + + & ; ; ; & & + + ",
". . .   % % % + + + + O O o o X O X X O O O O O O O O O O & & 1 ; * & & & + + + & O o o X X o o O O O X O O O O O O + + & ; ; & & + + + ",
". .     % % + + + + + % O o o o X X O O O O O @ O O O O + < & ; ; < & & + + + + % O O O X X O O X O O O O O O O O O + & ; ; ; ; & & + + ",
". . .   % & + + + + + + O O X o o O O O X O O O O X O O + + & ; ; ; & + + + + + + O O o o o X O O @ O O @ X O O O O + + 1 ; ; + < + + + ",
". .   % % % & + + + + + O O o X X o O O @ O X O O O O O + + ; ; ; & & < + + + + + O O o o o X O O X O O O O O O O O + + ; ; ; ; & & + + ",
". . .     O + + + + + + + o o o X O @ X O X O O O O O O + + ; ; ; & & + + + + + + + O o o X O O O O @ O O O O O O O + + + ; ; ; & + + + ",
". .     % % + + + + + + o o o X X O O O O O O O X O O @ + + & ; ; ; & & + + & + + O O O o o X O X O X O O O O O X @ + + ; ; ; ; & & + + ",
". .     % % + + + + % + + o o o X O O O O O O O @ O O O O + 1 ; ; & < & + + + + + O O o X X X X O O O O O O O O O @ + + ; ; ; ; & + + + ",
". .     % % + + + + + o o o o X X O O O O O O O O O O O + & < & ; & & + + + + + + + O o O X O O O O + X X @ O O O + + + + ; ; ; & & + + ",
". .     % % & + + + + + + o o X X O X O O O O X O O O O O + & ; ; & & & + + + + + O O X O X X O O O O O O O O X O O + + ; ; ; ; & + + + ",
". .     % % + + + + + + o o o o X X @ O O O @ O O X O O + + ; ; ; 1 & + + + & + + + O O O X O X O O O O O O O O O O + + ; ; ; + & & + & "
};
