/* XPM */
static char *f43781c97a72468ea1a335fcd0e6e89agIT4EOAnpldNtaMb[] = {
/* columns rows colors chars-per-pixel */
"64 64 25 1 ",
"  c #67704C",
". c #666F4C",
"X c #656E4B",
"o c #636C4A",
"O c #626B49",
"+ c #616A49",
"@ c #646D4B",
"# c #626B4A",
"$ c #68714C",
"% c #646D4A",
"& c #606948",
"* c #666F4B",
"= c #616A48",
"- c #5F6848",
"; c #5E6747",
": c #5F6847",
"> c #636C49",
", c #6A734D",
"< c #69724D",
"1 c #6B744E",
"2 c #6C754E",
"3 c #5D6647",
"4 c #5D6646",
"5 c #606949",
"6 c white",
/* pixels */
"          .XoOOoX.                                              ",
"          .XoOOoX.                                              ",
"          .XoOOoX.                                              ",
"          .XoOOoX.                                              ",
"          .XoOOoX.                                              ",
"          .XoOOoX.                                              ",
"          .Xo++oX.                                              ",
"          .@#++#@.                                              ",
"        $ .%O&&O%. $                                            ",
"          *%+&&+%*                                              ",
".........*Xo=--=oX*....**********************..******..*********",
"XXXXXX@@%oo+-;;-+oo%@@@@%%oooooooooo%%%%oo%%@@@%%%%%%@@@%%oooooo",
"oooooooOO+&-:;;:-&+O#ooOO++++++++++++++++++OOooOO++OOooOO+++++++",
"OOOOOOO+&&-:;;;;:-&&+OO+&&----------------&&+O++&&&&++O+&&------",
"######O++&&&&&&&&&&+OOOO+&&&&&&&&&&-:;;:-&&+OOO++&&++OOO+&&&&&&&",
"@@@XX@@%ooOO>oo>OOoo%@@%ooOOOOO>>OO=-;;-&Ooo%@@%oooo%@@%ooOOOOOO",
"        .**********.    .*********Xo&::&oX*     .**.    .*******",
",,,,,,,<<<<<<<<<<<<<<,,<<<<<<<<,,<$XO&&OX$<,,,,<<<<<<,,<<<<<<<<<",
"1111111111111111111111111111111111<*>&&>*<1111111111111111111111",
"1111111111111111111111111111112221, o++o ,1221111111111111111111",
"1111111111111111111111111111111221, %OO% ,1221111111111111111111",
"1111111111111111111111111111111111, %OO% ,1111111111111111111111",
"1111111111111111111111111111111111, %OO% ,1111111111111111111111",
"1111111111111111111111111111111221, %OO% ,1221111111111111111111",
"1111111111111111111111111111111221, o++o ,1221111111111111111111",
"1111111111111111111111111111111111<*>&&>*<1111111111111111111111",
"<<<<<,,<<<<<<<<<<<<<<,,<<<<<<,,,,<$XO&&OX$<,,,,<<<<<<,,<<<<<<<<<",
"***.    .**********.    .**.     *Xo&::&oX*     .**.    .*******",
"OOoo%@@%ooOO>oo>OOoo%@@%oooo%@@%ooO&-;;-&Ooo%@@%oooo%@@%ooOOOOOO",
"&&&++OOO+&&&&&&&&&&+OOO++&&++OOO+&&-:;;:-&&+OOO++&&++OOO+&&&&&&&",
"--&&++O+&&-:;;;;:-&&+O++&&&&++O+&&--------&&+O++&&&&++O+&&------",
"+++OOoo#O+&-:;;:-&+O#ooOO++OOooOO++++++++++OOooOO++OOooOO+++++++",
"oo%%%@@@%oo+-;;-+oo%@@@%%%%%%@@@%%oo%%%%oo%%@@@%%%%%%@@@%%oooooo",
"*****....*Xo=--=oX*....******..**************..******..*********",
"          *%+&&+%*                                              ",
"        $ .%O&&O%. $                                            ",
"          .@#++#@.                                              ",
"          .Xo++oX.                                              ",
"          .Xo++oX.                                              ",
"          .@#++#@.                                              ",
"       $$ .%O&&O%. $                                            ",
"          *%+&&+%*                                              ",
"**********Xo=--=oX*....**********************..**************...",
"ooooooo%%oo+-;;-+oo%@@@@%%oooooooooo%%%%oo%%@@@@%%oooooooo%%%@XX",
"++++++++++&&:;;:-&+O#ooOO++++++++++++++++++OOooOO++++++++++OOooo",
"-----------:;;;;:-&&+OO+&&----------------&&+OO+&&--------&&+OO#",
"&&&&&&&&&&&&&&&&&&&+OOOO+&&&&&&&&&&-:;;:-&&+OOOO+&&&&&&&&&&++O#o",
"OOOOOOOOOOO>ooo>OOoo%@@%ooOOOOO>>OO=-;;-&Ooo%@@%ooOOOOOOOOoo%@@X",
"*******************.    .*********Xo&::&oX*     .**********.    ",
"<<<<<<<<<<<<<<<<<<<<<,,<<<<<<<<,,<$XO&&OX$<,,,,<<<<<<<<<<<<<<,,,",
"1111111111111111111111111111111111<*>&&>*<1111111111111111111111",
"1111111111111111111111111111112221, o++o ,1221111111111111111111",
"1111111111111111111111111111111221, %OO% ,1221111111111111111111",
"1111111111111111111111111111111111, %OO% ,1111111111111111111111",
"1111111111111111111111111111111111, %OO% ,1111111111111111111111",
"1111111111111111111111111111111221, %OO% ,1221111111111111111111",
"1111111111111111111111111111111221, o++o ,1221111111111111111111",
"1111111111111111111111111111111111<*>&&>*<1111111111111111111111",
"<<<<<<<<<,,<<<<<<,,<<<<<<<<<<,,,,<$XO&&OX$<,,,,,,,,<<<<<<<<<<<<<",
"*******.    .**.    .******.     *Xo=--=oX*         .***********",
">>>>>>oo%@@%oooo%@@%oo>OO>oo%@@%%oO=-::-=Ooo%@XXXX@%oo>>>>>>>>>>",
"&&&&&&&++OO++&&++OO++&&&&&&++OOO+&&-:;;:-&&++O#oo#O++&&&&&&&&&&&",
";;;;;;;-&++&-::-&++&-;;;;;;-&++&-;;;;;;;;;;-&++++++&-;;;;;;;;;;;",
"333333;:-&&-;;;;-&&-:;3443;:-&&-;;33;;;;33;;-&5++5&-;;3333333333"
};
