/* XPM */
static char *de5fc1be12a4461cd40fb3c624d0b299IOdT7P4mDukfmEe5[] = {
/* columns rows colors chars-per-pixel */
"64 64 121 2 ",
"   c None",
".  c #153C64",
"X  c #163F68",
"o  c #174169",
"O  c #19446D",
"+  c #1A4770",
"@  c #1B4A74",
"#  c #1D4E79",
"$  c #1E517B",
"%  c #234B71",
"&  c #23547C",
"*  c #385A7C",
"=  c #1F5480",
"-  c #225782",
";  c #255B84",
":  c #285D84",
">  c #255D89",
",  c #2F658C",
"<  c #30678F",
"1  c #266392",
"2  c #286694",
"3  c #2C6B96",
"4  c #2C6E9B",
"5  c #336C93",
"6  c #2F719C",
"7  c #31749F",
"8  c #3B799F",
"9  c #2E75A6",
"0  c #2E76A8",
"q  c #3277A2",
"w  c #3379A4",
"e  c #3D7CA2",
"r  c #347DAB",
"t  c #337EB2",
"y  c #446485",
"u  c #426788",
"i  c #567390",
"p  c #3F80A6",
"a  c #3781AD",
"s  c #3883AF",
"d  c #3A87B3",
"f  c #3C8BB7",
"g  c #3D8CB9",
"h  c #3F91BE",
"j  c #4182A8",
"k  c #4C88AE",
"l  c #5C86A5",
"z  c #448CB4",
"x  c #4092BF",
"c  c #4D95BB",
"v  c #398CC2",
"b  c #3E96CE",
"n  c #3F99D1",
"m  c #4295C2",
"M  c #4398C6",
"N  c #4C98C0",
"B  c #459DCB",
"V  c #529DC3",
"C  c #419ED7",
"Z  c #419FD8",
"A  c #47A1CF",
"S  c #48A1CF",
"D  c #56A3C8",
"F  c #49A5D3",
"G  c #42A0D9",
"H  c #4DACDA",
"J  c #5CADD3",
"K  c #4FB1DF",
"L  c #52B1DE",
"P  c #5DB2D9",
"I  c #61B6DB",
"U  c #4FB1E0",
"Y  c #51B5E3",
"T  c #53B8E7",
"R  c #5EBCE5",
"E  c #54BAE8",
"W  c #5ABDEA",
"Q  c #67BEE4",
"!  c #5EC0EC",
"~  c #64C4EE",
"^  c #6BC6EE",
"/  c #6CC9EE",
"(  c #65C6F0",
")  c #68C7F0",
"_  c #66C8F1",
"`  c #6BCAF1",
"'  c #72CEF4",
"]  c #75D0F5",
"[  c #76D1F5",
"{  c #75D1F6",
"}  c #76D1F6",
"|  c #77D1F6",
" . c #76D2F6",
".. c #77D2F6",
"X. c #77D2F7",
"o. c #77D3F7",
"O. c #75D1F6",
"+. c #78D2F6",
"@. c #78D3F6",
"#. c #78D3F7",
"$. c #7BD3F6",
"%. c #7FD5F7",
"&. c #78D3F7",
"*. c #A5B7C7",
"=. c #ACBBC9",
"-. c #BFC9D4",
";. c #81D5F7",
":. c #82D6F7",
">. c #83D6F7",
",. c #8DD9F8",
"<. c #94DCF8",
"1. c #B1E5FA",
"2. c #B9E7FA",
"3. c #C6CFD9",
"4. c #CAEEFC",
"5. c #D6F1FC",
"6. c #E3F6FD",
"7. c #EAF8FE",
"8. c #F4FBFE",
"9. c #FAFDFF",
"0. c white",
/* pixels */
"                                                                                                                                ",
"                                                                                                                                ",
"                                                                                                                                ",
"                                                                                                                                ",
"                                                                                                                                ",
"                                                                                                                                ",
"                                                                                                                                ",
"                                                                                                                                ",
"                                                          ....................                                                  ",
"                                                    ................+.+...........                                              ",
"                                                ..........%.<.>.....` ` ` ....+.......                                          ",
"                                            ............+.4.9.5.;.' W E T W ~ / ........                                        ",
"                                          ........' ~ ' >.7.0.8.,.) E T T T T E W ) ........                                    ",
"                                      ........' ~ W E ~ +.1.6.2.` W T T T T T T T E ~ ' ......                                  ",
"                                    ........^ W T T T E W ~ ^ W E T T T T T T T E T T W ` ......                                ",
"                                  ......' ! E T T T T T T T T T T T T T T T T T T T T T W ' ....                                ",
"                                ......) W T T T T T T T T T T T T T T T T T T T T T T T T W ' ....                              ",
"                              ......^ E E T T T T T T T T T T T T T T T T T T T T T T T T T W { ....                            ",
"                            ......~ E T T T T T T T T T T T T T T T T T T T T T T T T T T T T ~ ....                            ",
"                          ......~ E T T T T T T T T T T T T T T T T T T T T T T T T T T T T T T ` ....                          ",
"                          @.@./ E E E T T T T T T T T T T T T T T T T T T T T T T T T T T T T T ! ....                          ",
"                        @.@.` E H z g Y T T T T T T T T T T T T T T T T T T T T T T T T T T T T T ^ ....                        ",
"                      ....' W b l -., N E T T T T T T T T T T T T T T T T T T T T T T T T T T T T W { ..                        ",
"                      ..{ ~ A $ y =.* g E T T T T T T T T T T T T T T T T T T T T T T T T T T T T T ) ....                      ",
"                    ....) T 3 . . X O B E T T T T T T T T T T T T T T T T T T T T T T T T T T T T T W ....                      ",
"                    ....! B O . . . ; L T T T T T T T T T T T T T T T T T T T T T T T T T T T K B Y E ` +...                    ",
"                  ....~ E s . . . o f E T T T T T T T T T T T T T T T T T T T T T T T T T T Y k u 7 Y W ....                    ",
"                  +.' W E 7 . . . 6 Y T T T T T T T T T T T T T T T T T T T T T T T T T T E M *.3.% m E ` ....                  ",
"                  +.) E E f o O 7 U T T T T T T T T T T T T T T T T T T T T T T T T T T T E w y i . 4 T ~ ....                  ",
"                X...W T T Y M B T E T T T T E E E T T T T T T T T T T T T T T T T T T T T T 4 . . . ; Y W ' ..                  ",
"                +.' E T T T E E T T T T T E T h A E T T T T T T T T T T T T T T T T T T T E 6 . . . & K E ) +...                ",
"                +.) T T T T T T T T T T T H 4 . $ x T E T T T T T T T T T T E E T T T T T E s . . . ; Y T ! ....                ",
"                ..! T T T T T T T T T T K 3 . . . O 6 A T E E T E E E E E T F F T T T T T E B O . . 3 T T E ` @.                ",
"                ' W T T T T T T T T E T r . . . . . . + 1 s b A F B M g w > @ & H E T T T T T 3 . O M E T T ` @.                ",
"              &.' E T T T T T T T T E F # . . o . . . . . . o + + O O . . . . . r T T T T T T H a h T T T T ~ ..@.              ",
"              &.' E T T T T T T T T E d . . . . . . . . . . . . . . . . . . . . $ H T T T T T T E T T T T T ! ....              ",
"              @.` E T T T T T T T T T 6 . . . . . . . . . . . . X . . . . . . . o h E T T T T T T T T T T T W ] ..              ",
"              @./ T T T T T T T T T T 3 . . . . . o . . . . . . . . . . . . . . . r E T T T T T T T T T T T E ] @.              ",
"              +.` T T T T T T T T T E w . . . . . . . . . . X X . . . . . . . . . 9 E T T T T T T T T T T T E ` @.              ",
"              +.` E T T T T T T T E E x o . . . . . o $ 1 0 t s 0 2 = o . . . . . r E T T T T T T T T T T T T ' @.              ",
"              &.` E E T T T T T T T E L ; . . . . # 0 n n G G G Z Z b t $ . X . X m E E T T T T T T T T T T E ' &.              ",
"              &...W E T T T T T T T E E z . . . @ v G Z Z G n Z Z Z Z G v # . . : Y T T T T T T T T T T T T W ' &.              ",
"                @.~ T T T T T T T T T T R < . . 2 Z Z G Z G Z G C C Z Z Z 2 . O N W T T T T T T T T T T T T W ..                ",
"                @.) T T T T T T T T T T W P & . = n Z n n G n G C C C Z n ; . j Q T T T T T T T T T T T T T ~ ..                ",
"                @.{ E T T T T T T T T T T ~ J & . 4 b Z Z Z Z n Z Z Z C 4 o e ~ E E T T T T T T T T T T T E ` +.                ",
"                  ..~ E T T T T T T T T T T ) I 5 O $ 9 v b n n b v 9 - % c ) W T E T T T T T T T T T T T ! ..                  ",
"                  @.] E T T T T T T T T T T E ) / N , @ O @ $ # @ O & e I ` ! E T T T T T T T T T T T T E ` &.                  ",
"                    ..) T T T T T T T T T T T T ! ` / P c p e e z D Q ` ( E E E T T T T T T T T T T T T ~ ..                    ",
"                      ..~ E T T T T T T T T T T T E W ! ) ) ) ) ) ~ ! E T T T T T T T T T T T T T T T W ..                      ",
"                        ' W T T T T T T T T T T T T T T T T E E E T T T T T T T T T T T T T T T T T ! '                         ",
"                          ' ~ T T T T T T T T T T T T T T T T T T T T T T T T T T T T T T T T T T ~ ..                          ",
"                            { / W T T T T T T T T T T T T T T T T T T T T T T T T T T T T T T W ) ..                            ",
"                                ' ~ W E T T T E T T T T T T T T T T T T T T T T T T T T T W ~ {                                 ",
"                                    ..) ~ W E E T T E E T T T T T T T T T E T T T T E W ) '                                     ",
"                                          ' ` ~ ~ W W E E E T T T T T T E W W W ~ ) ' ..                                        ",
"                                                    ' ` ` ^ ^ ( ) ) ) ) ` ` ` ..                                                ",
"                                                                                                                                ",
"                                                                                                                                ",
"                                                                                                                                ",
"                                                                                                                                ",
"                                                                                                                                ",
"                                                                                                                                ",
"                                                                                                                                ",
"                                                                                                                                "
};
