/* XPM */
static char *_26dfc66434d4ae7ab8d7c5909dad22eHgQ9rfyaKhDY7F3y[] = {
/* columns rows colors chars-per-pixel */
"64 64 71 1 ",
"  c None",
". c #566265",
"X c #576265",
"o c #576366",
"O c #586467",
"+ c #586568",
"@ c #596568",
"# c #596569",
"$ c #596669",
"% c #5A6669",
"& c #5A676A",
"* c #5B676A",
"= c #5B686B",
"- c #5C696C",
"; c #5C6A6D",
": c #5D6A6D",
"> c #5D6B6E",
", c #5E6B6E",
"< c #5E6C6F",
"1 c #5F6C6F",
"2 c #5F6D70",
"3 c #606D70",
"4 c #606D71",
"5 c #606E71",
"6 c #606F72",
"7 c #616F72",
"8 c #617072",
"9 c #617073",
"0 c #627073",
"q c #627173",
"w c #627174",
"e c #627274",
"r c #637275",
"t c #637375",
"y c #637376",
"u c #637475",
"i c #637476",
"p c #647476",
"a c #647576",
"s c #647477",
"d c #647577",
"f c #657577",
"g c #657677",
"h c #657578",
"j c #657678",
"k c #657778",
"l c #667778",
"z c #667779",
"x c #667879",
"c c #66787A",
"v c #67787A",
"b c #66797A",
"n c #67797A",
"m c #677A7B",
"M c #687A7B",
"N c #687A7C",
"B c #687B7C",
"V c #697B7C",
"C c #697B7D",
"Z c #697C7C",
"A c #697C7D",
"S c #697D7E",
"D c #6A7C7E",
"F c #6A7D7E",
"G c #6A7D7F",
"H c #6A7E7F",
"J c #6B7E7F",
"K c #6B7F80",
"L c #6C7F80",
"P c #6C8080",
"I c #6C8081",
/* pixels */
"                        5555555554555544                        ",
"                        5555525555555555                        ",
"                        7555999955995555                        ",
"                       9t6ttwwwwwwwwtt5t9                       ",
"                 5531599ttppppdiiiiippptq555252                 ",
"                33555599tllllldlllllllltq9555291                ",
"                9999999ipllxxxxxxxxxxxlpt9999988                ",
"               9qq9e99eelllxxxxxxxxxxlllpt9w99e99               ",
"     55555533559eepippkklxxxxxxxxxxxlxxllippeiee99511555555     ",
"    55555555555willlllkkxxxxxxxxxxxxllxxllllkklk955555525555    ",
"    5555595995wtplxxxxxlxMMxxMxxMxxxnnnMlllxlBkkt99995995555    ",
"    5559w9wwtwtpllxxxxBxMBBBMGMGGMCGBBBBBBxxlllkptwwwwww5555    ",
"    5559wipittplllxxxxxMGGGHGGGGGGHHHHGBBlllBkllppppppwwt755    ",
"    5559iixxllllllxxxlMBBGPHLLPPHHHPHPGBBBlllkllMplxlllw5555    ",
"    559ippxxxxxxnnMBxMMBBGHHGGJJHGHGHGGGBBlBBBlbxxxxxxvpt555    ",
"    555wpxxxxxxxMBBBBBBBBMMBMMMvBMBMBMBMBBBBBBBBxxxxxlltt755    ",
"    555tdxxxxxxGBGGGPGGBvlsslssvtvslsllvxGGJGGGCGxxxxxxp9955    ",
"    555twlxxxxxBBGPPPHGMltw666t7777566tlGGPPKKKCBxxxxxli9955    ",
"    555tllxxxxxBGGHGGGBMs6555555555555wtxGGJGGKCBBMxxxxpe953    ",
"    559tlxGCGCGBxBBMMMMpt55555555554555tpxxCCMCcBBBGBGBpp955    ",
"    555pcGKKKKCCvllpppptw55555555555555wtpppilllMGGPGGGlp952    ",
"    55wplGKKLKCClt959999525555525555555599q9wwwlMGHPPPGMpw52    ",
"    :55tlCGKKKCvt6555555222222221154:3555555556llBGPHGGpi511    ",
"    ::55ilCCCxvlt55355332:---:--::::::::1555555wpMBBGMxp91::    ",
"    @=:25illllttt5552222--@@@&&&@@@@@---2222w25wtwlllpw91=@@    ",
"    o@@-226ww66655552222&+++OO@+@@O+@@@&-222522www5www81-@@o    ",
"    oo@@::2255222455222--@++++++@+++++@--2222222555522::=+oo    ",
"     o@@@:::2222::::----&&&&&&&&&&&&@&@-----:-2:2222::-=@+o     ",
"       @@@--:22::@@@&-----:::-:---:::----@-+@---:22:--@@@       ",
"        @@@-2222:@++O+@@-22222222222222--@++++@@:55:-@+o        ",
"        ooO&-22:&@@@O@@-:22522552626222-@@+@++@-:22:=+oo        ",
"        ooO@:22::-&@@&--2226w2555529w222---@@@--222:@ooo        ",
"        oo+=:521::::-:::2555555555555552::::--:222::@+oo        ",
"        oo+@::5555:5225255555555555555552522:255555:-+oo        ",
"        oo@-:25555552525555555555555555555555555552:-@@@        ",
"       @@@-::255555w55w25555555555555555555w5w55555:--@@@       ",
"     oo@---22555w55ww55w555522555555555555w5w5295555:::@@Oo     ",
"    ooO@-122555555555255555522555555555555252w22555555::@Ooo    ",
"    oo+-:2225553222:222222222222:452555552:222225555551:=Ooo    ",
"    ooo@:22w5534::::-------:2---::::2552:::---:::555555:@Ooo    ",
"    OoO@:255552::-@@@-@--@-@-+@@@@--2222--@@@---:359552:=@oo    ",
"    oo@=:255w552-@++@+++++++++++O@@-:22:-++++++-:555952:@Ooo    ",
"    ooo@:25w555:&@++++++@+@@++++++@-:55:-+++@+@-1559552:=@oo    ",
"    oo+-:555555:---@@+-@@-@@-+-+-@--:22:---@@@-::155952:=ooo    ",
"    ooo@:2555515::::::::::::::::--:222552-::::::5355952:@ooo    ",
"    .o@@:55555515511222211112:222222555522225:225555222:=ooo    ",
"    oo@@::2555552251:2:211152:222:22:511222:1155355522:-@@oo    ",
"     o@@@:::55222::::::::::::::-::::::::::::::::13522::-@@o     ",
"       @@=--2222---+-+-+-+-+-+-++-+-@-@-==@=@=--1222:-=@@       ",
"        ++@--22--@+O+++++++++++++++++++++++o+++=:22:-@+o        ",
"        ooo--122-@+@++++++++++++++++++++++o+++@-:22:@@o.        ",
"        ooo@-222:-@@@@-@+-+-@-@-+-+-+-@==@==@@=:222:@oo.        ",
"        oo+@:2222:-----:--:---:---->:-------:-:2222:@+oo        ",
"        oo+-:25222222222222222222222222222222222521:@+oo        ",
"        ooo@-1225522255522222555w222555529222522221-=+oo        ",
"         o++--:2255w555529w2555522825555522895522:-=@+o         ",
"           @@@--222w2255555555552555555555559221--=@@           ",
"            @+@-:225555555555555555555555555552:-@+O            ",
"            oo+=:255555555555555555555555555552:@+oo            ",
"             o+@:255555555555555555555555555552:@+o             ",
"                                                                ",
"                                                                ",
"                                                                ",
"                                                                "
};
